<svg height="48" viewBox="0 0 48 48" width="48" xmlns="http://www.w3.org/2000/svg"><g fill="none" fill-rule="evenodd"><circle cx="24" cy="24" fill="#000" r="20"/><path d="m36 18.0707965c-.7644788.39823-1.6988417.6371681-2.5482625.7168141.9343629-.5575221 1.6138996-1.4336283 1.9536679-2.4690265-.8494208.4778761-1.7837838.8761062-2.8880309 1.1150442-.8494208-.8761062-1.9536679-1.4336283-3.2277992-1.4336283-2.4633205 0-4.5019305 1.9911504-4.5019305 4.539823 0 .3185841 0 .7168142.0849421 1.0353982-3.7374518-.159292-7.0501931-1.9911504-9.2586873-4.699115-.4247104.6371681-.5945946 1.4336283-.5945946 2.3097345 0 1.5929204.7644788 2.9469027 1.953668 3.7433628-.7644788 0-1.4440155-.238938-2.0386101-.5575221v.079646c0 2.1504425 1.5289576 3.9823009 3.5675676 4.460177-.3397683.079646-.7644788.1592921-1.1891892.1592921-.2548262 0-.5945946 0-.8494208-.0796461.5945946 1.8318584 2.2084942 3.1061947 4.1621621 3.1061947-1.5289575 1.1946903-3.4826255 1.9115045-5.5212355 1.9115045-.3397683 0-.6795367 0-1.1042471-.0796461 1.953668 1.2743363 4.3320463 2.0707965 6.8803089 2.0707965 8.2393822 0 12.7413127-6.8495575 12.7413127-12.8230088 0-.1592921 0-.3982301 0-.5575222 1.019305-.7964602 1.7837838-1.5929203 2.3783784-2.5486725z" fill="#fff"/></g></svg>